<svg id="Vives_logo" data-name="Vives logo" xmlns="http://www.w3.org/2000/svg" width="132.813" height="51.386" viewBox="0 0 132.813 51.386">
  <path id="Path_1" data-name="Path 1" d="M127.446,62.9a8.105,8.105,0,0,1,2.311,1.055,2.272,2.272,0,0,1,.829,1.962,2.242,2.242,0,0,1-.545,1.57,4.1,4.1,0,0,1-1.339.981,6.245,6.245,0,0,1-1.742.515,12.035,12.035,0,0,1-1.742.142,16.142,16.142,0,0,1-3.518-.373,23.343,23.343,0,0,1-3.567-1.114,19.65,19.65,0,0,0-1.114,3.057,16.74,16.74,0,0,0-.545,3.115c.8.3,1.545.549,2.227.741s1.384.353,2.085.491a19.327,19.327,0,0,0,2.2.285q1.148.088,2.517.088a17.662,17.662,0,0,0,5.436-.78,12.687,12.687,0,0,0,4.082-2.11,9.1,9.1,0,0,0,2.571-3.174,8.934,8.934,0,0,0,.888-3.925,10.455,10.455,0,0,0-.525-3.508,6.868,6.868,0,0,0-1.428-2.4,8.085,8.085,0,0,0-2.2-1.629,15.847,15.847,0,0,0-2.895-1.1l-3.253-.981a8.89,8.89,0,0,1-2.2-.981,1.962,1.962,0,0,1-.76-1.737,2.026,2.026,0,0,1,1.084-1.913,6.339,6.339,0,0,1,3.027-.6,13.914,13.914,0,0,1,3.483.427,23.549,23.549,0,0,1,3.027.981,14.919,14.919,0,0,0,1.084-2.8A15.784,15.784,0,0,0,137.5,46.1a27.764,27.764,0,0,0-4.416-1.2,23.942,23.942,0,0,0-4.416-.4q-5.4,0-8.483,2.453a8.2,8.2,0,0,0-3.081,6.8,7.319,7.319,0,0,0,1.8,5.4,11.284,11.284,0,0,0,5,2.713ZM93.515,56.785a7.545,7.545,0,0,1,1.771-4.514,5.629,5.629,0,0,1,4.342-1.6,4.813,4.813,0,0,1,3.925,1.688,7.183,7.183,0,0,1,1.511,4.416Zm18.908,5.657c.074-.417.142-.981.2-1.688s.083-1.418.083-2.139a17.721,17.721,0,0,0-.854-5.569,12.628,12.628,0,0,0-2.541-4.484,12.148,12.148,0,0,0-4.087-2.973A13.2,13.2,0,0,0,99.741,44.5a14.718,14.718,0,0,0-6.2,1.222,12.933,12.933,0,0,0-4.455,3.341,14.351,14.351,0,0,0-2.713,5,20.008,20.008,0,0,0-.913,6.113,20.228,20.228,0,0,0,.883,6.113,12.756,12.756,0,0,0,2.743,4.828,12.516,12.516,0,0,0,4.8,3.169,19.527,19.527,0,0,0,7.055,1.143A27.8,27.8,0,0,0,111,73.716a14.09,14.09,0,0,0-.491-3.434,13.365,13.365,0,0,0-1.084-2.743,22.387,22.387,0,0,1-3.856,1.055,21.789,21.789,0,0,1-3.969.373,9.67,9.67,0,0,1-5.711-1.541,6.2,6.2,0,0,1-2.4-4.97Zm-47.1,12.221a11.343,11.343,0,0,0,2.061.285c.721.039,1.369.059,1.962.059s1.2,0,2-.059a20.607,20.607,0,0,0,2.286-.226L84.777,45.236a17.662,17.662,0,0,0-2.541-.339c-.741-.039-1.4-.059-1.962-.059-.726,0-1.447.029-2.173.088s-1.408.142-2.056.255l-6.344,22L63.234,45.192a11.476,11.476,0,0,0-2.11-.285c-.765-.039-1.526-.059-2.286-.059-.574,0-1.251,0-2.026.059a16.489,16.489,0,0,0-2.546.339ZM43,74.722a24.267,24.267,0,0,0,3.925.343,24.6,24.6,0,0,0,4-.343V45.192H39.145a13.291,13.291,0,0,0-.343,3.027c0,.491.029,1.02.083,1.57a12.476,12.476,0,0,0,.26,1.57h3.827Zm-26.3-.049a11.348,11.348,0,0,0,2.056.285q1.089.059,1.962.059c.535,0,1.2,0,2-.059a20.5,20.5,0,0,0,2.257-.235L36.172,45.236A17.771,17.771,0,0,0,33.63,44.9q-1.114-.059-1.962-.059c-.721,0-1.472.029-2.169.088s-1.408.142-2.056.255l-6.353,22L14.663,45.192a11.53,11.53,0,0,0-2.115-.285c-.76-.039-1.521-.059-2.286-.059-.569,0-1.246,0-2.026.059a16.435,16.435,0,0,0-2.566.329Z" transform="translate(-5.67 -24.053)" fill="#e30613"/>
  <path id="Path_2" data-name="Path 2" d="M83.143,25.875a5.088,5.088,0,1,0-5.083-5.088,5.088,5.088,0,0,0,5.083,5.088" transform="translate(-42.545 -9.381)" fill="#e30613"/>
  <path id="Path_3" data-name="Path 3" d="M119.21,2.939a4.352,4.352,0,0,1,.515-.059h.981a5,5,0,0,1,.53.059V6.972c.064-.088.157-.191.27-.319a2.37,2.37,0,0,1,.417-.348,2.615,2.615,0,0,1,.6-.289,2.713,2.713,0,0,1,.81-.113,2.453,2.453,0,0,1,1.909.7,3.174,3.174,0,0,1,.7,2.222v4.852a4.774,4.774,0,0,1-.525.059h-.981a4.862,4.862,0,0,1-.53-.059v-4.3a2.419,2.419,0,0,0-.25-1.217.9.9,0,0,0-.849-.427,1.923,1.923,0,0,0-.491.074,1.143,1.143,0,0,0-.491.285,1.668,1.668,0,0,0-.348.594,2.978,2.978,0,0,0-.137.981v3.984a5,5,0,0,1-.53.059h-.981a4.823,4.823,0,0,1-.52-.059Z" transform="translate(-63.506 -2.852)" fill="#e30613"/>
  <path id="Path_4" data-name="Path 4" d="M139.7,16.977a3.925,3.925,0,0,1-1.6-.3,2.944,2.944,0,0,1-1.128-.834,3.625,3.625,0,0,1-.677-1.251,5.117,5.117,0,0,1-.226-1.555,5.284,5.284,0,0,1,.226-1.57,3.65,3.65,0,0,1,.677-1.266,3.066,3.066,0,0,1,1.128-.844,3.925,3.925,0,0,1,1.6-.3,4.013,4.013,0,0,1,1.614.3,3.14,3.14,0,0,1,1.138.844,3.493,3.493,0,0,1,.677,1.281,5.446,5.446,0,0,1,.221,1.57,5.275,5.275,0,0,1-.221,1.555,3.469,3.469,0,0,1-.677,1.251,3.012,3.012,0,0,1-1.138.834,4.013,4.013,0,0,1-1.614.289Zm0-1.585a1.256,1.256,0,0,0,1.177-.608,3.434,3.434,0,0,0,.363-1.751,3.478,3.478,0,0,0-.363-1.752,1.266,1.266,0,0,0-1.177-.608,1.246,1.246,0,0,0-1.163.608,3.435,3.435,0,0,0-.363,1.752,3.405,3.405,0,0,0,.363,1.752,1.236,1.236,0,0,0,1.163.618Z" transform="translate(-72.088 -5.994)" fill="#e30613"/>
  <path id="Path_5" data-name="Path 5" d="M158.087,15.591a3.012,3.012,0,0,1,1.962.594,2.056,2.056,0,0,1,.628,1.6,2.08,2.08,0,0,1-.319,1.124,2.846,2.846,0,0,1-.883.859,4.582,4.582,0,0,1-1.315.54,6.771,6.771,0,0,1-1.644.191,7.2,7.2,0,0,1-1.5-.137,3.228,3.228,0,0,1-.981-.392,1.472,1.472,0,0,1-.574-.594,1.9,1.9,0,0,1-.167-.8,1.781,1.781,0,0,1,.314-1.089,3,3,0,0,1,.844-.746,1.6,1.6,0,0,1-.535-.491,1.369,1.369,0,0,1-.2-.77,1.6,1.6,0,0,1,.236-.908,2.59,2.59,0,0,1,.692-.672,2.571,2.571,0,0,1-.795-.9,2.453,2.453,0,0,1-.275-1.173,2.561,2.561,0,0,1,.216-1.06,2.409,2.409,0,0,1,.638-.854,3.135,3.135,0,0,1,1.02-.559A4.121,4.121,0,0,1,156.8,9.15a3.827,3.827,0,0,1,1.344.226,3.341,3.341,0,0,1,1.03.579,1.7,1.7,0,0,1,.687-.549A2.762,2.762,0,0,1,161,9.184a2.418,2.418,0,0,0,.054.378,3.252,3.252,0,0,1,0,.388v.491a4.417,4.417,0,0,1-.059.491h-1.187a2.063,2.063,0,0,1,.132.353,2,2,0,0,1,.059.54,2.645,2.645,0,0,1-.216,1.065,2.335,2.335,0,0,1-.623.844,2.978,2.978,0,0,1-.981.554,4.062,4.062,0,0,1-1.339.206,4.371,4.371,0,0,1-1.128-.132.711.711,0,0,0-.309.343,1.153,1.153,0,0,0-.059.348.491.491,0,0,0,.152.378.981.981,0,0,0,.623.162Zm-1.874,1.526a1.251,1.251,0,0,0-.535.074.908.908,0,0,0-.339.226.981.981,0,0,0-.177.3,1.374,1.374,0,0,0-.049.334.765.765,0,0,0,.417.756,2.654,2.654,0,0,0,1.124.2,3.228,3.228,0,0,0,1.472-.294.878.878,0,0,0,.579-.8,1.041,1.041,0,0,0-.039-.28.52.52,0,0,0-.118-.211.77.77,0,0,0-.285-.182,1.246,1.246,0,0,0-.491-.074Zm.6-4a1.04,1.04,0,0,0,.883-.353,1.531,1.531,0,0,0,.275-.981,1.575,1.575,0,0,0-.275-.981,1.03,1.03,0,0,0-.883-.363,1.084,1.084,0,0,0-.913.363,1.575,1.575,0,0,0-.275.981,1.531,1.531,0,0,0,.275.981,1.094,1.094,0,0,0,.913.353Z" transform="translate(-80.869 -6.045)" fill="#e30613"/>
  <path id="Path_6" data-name="Path 6" d="M172.4,13.651a1.58,1.58,0,0,0,.613,1.276,2.453,2.453,0,0,0,1.472.392,5.682,5.682,0,0,0,1.02-.093,6.186,6.186,0,0,0,.981-.27,3.263,3.263,0,0,1,.28.7,3.576,3.576,0,0,1,.132.878,7.138,7.138,0,0,1-2.581.442,5,5,0,0,1-1.81-.294,3.11,3.11,0,0,1-1.933-2.051,5.4,5.4,0,0,1,0-3.14,3.63,3.63,0,0,1,.7-1.271,3.282,3.282,0,0,1,1.143-.859,3.753,3.753,0,0,1,1.59-.314,3.434,3.434,0,0,1,1.408.275,3.17,3.17,0,0,1,1.05.765,3.263,3.263,0,0,1,.653,1.148,4.538,4.538,0,0,1,.216,1.433v.549a2.706,2.706,0,0,1-.049.432Zm2.973-1.472a1.855,1.855,0,0,0-.388-1.138,1.246,1.246,0,0,0-1.006-.432,1.472,1.472,0,0,0-1.114.412,1.918,1.918,0,0,0-.451,1.158Z" transform="translate(-89.553 -5.994)" fill="#e30613"/>
  <path id="Path_7" data-name="Path 7" d="M189.108,13.5a2.9,2.9,0,0,1-1.285-.7,1.879,1.879,0,0,1-.461-1.384,2.1,2.1,0,0,1,.8-1.747,3.434,3.434,0,0,1,2.178-.628,6.231,6.231,0,0,1,1.128.1,7.149,7.149,0,0,1,1.128.3,4.02,4.02,0,0,1-.147.795,4.277,4.277,0,0,1-.28.716,5.6,5.6,0,0,0-.78-.255,3.3,3.3,0,0,0-.893-.113,1.619,1.619,0,0,0-.775.157.52.52,0,0,0-.28.491.491.491,0,0,0,.2.451,2.453,2.453,0,0,0,.569.25l.834.25a4.086,4.086,0,0,1,.741.285,2.031,2.031,0,0,1,.564.417,1.83,1.83,0,0,1,.368.618,2.625,2.625,0,0,1,.128.9,2.262,2.262,0,0,1-.226,1.011,2.321,2.321,0,0,1-.657.814,3.267,3.267,0,0,1-1.05.545,4.676,4.676,0,0,1-1.388.2,5.339,5.339,0,0,1-.648-.025c-.2-.025-.383-.039-.564-.069a4.984,4.984,0,0,1-.535-.128q-.265-.074-.574-.191a4.214,4.214,0,0,1,.142-.8,5.132,5.132,0,0,1,.285-.78,6.06,6.06,0,0,0,.917.285,4.126,4.126,0,0,0,.9.093,3.022,3.022,0,0,0,.451-.034,1.682,1.682,0,0,0,.446-.132,1.109,1.109,0,0,0,.343-.25.668.668,0,0,0-.074-.893,1.923,1.923,0,0,0-.594-.27Z" transform="translate(-98.139 -5.989)" fill="#e30613"/>
  <path id="Path_8" data-name="Path 8" d="M206.624,15.015a3.311,3.311,0,0,1,.294.677,3.376,3.376,0,0,1,.113.917,4.514,4.514,0,0,1-1.1.3,8.282,8.282,0,0,1-1.07.069,4.16,4.16,0,0,1-1.653-.3,3.169,3.169,0,0,1-1.177-.824,3.522,3.522,0,0,1-.7-1.256,5.2,5.2,0,0,1-.236-1.575,5.137,5.137,0,0,1,.231-1.555,3.553,3.553,0,0,1,.687-1.256,3.2,3.2,0,0,1,1.153-.854,3.925,3.925,0,0,1,1.594-.3h.594a4.229,4.229,0,0,1,.52.054,4.645,4.645,0,0,1,.491.123,5.67,5.67,0,0,1,.554.186,3.659,3.659,0,0,1-.083.756,3.518,3.518,0,0,1-.28.8,4.8,4.8,0,0,0-.77-.2,4.906,4.906,0,0,0-.756-.054,1.639,1.639,0,0,0-1.369.594A2.7,2.7,0,0,0,203.2,13a2.5,2.5,0,0,0,.491,1.732,1.742,1.742,0,0,0,1.349.54h.422a2.164,2.164,0,0,0,.358-.039,2.6,2.6,0,0,0,.363-.088Z" transform="translate(-105.219 -5.994)" fill="#e30613"/>
  <path id="Path_9" data-name="Path 9" d="M216.27,2.939a4.386,4.386,0,0,1,.491-.059h1.006a4.906,4.906,0,0,1,.525.059V6.972c.069-.088.162-.191.27-.319a2.8,2.8,0,0,1,.417-.348,2.66,2.66,0,0,1,.6-.289,2.7,2.7,0,0,1,.8-.113,2.453,2.453,0,0,1,1.913.7,3.174,3.174,0,0,1,.706,2.222v4.852a4.905,4.905,0,0,1-.525.059H221.5a4.862,4.862,0,0,1-.53-.059v-4.3a2.419,2.419,0,0,0-.25-1.217.908.908,0,0,0-.849-.427,1.923,1.923,0,0,0-.515.074,1.143,1.143,0,0,0-.491.285,1.6,1.6,0,0,0-.353.594,3.11,3.11,0,0,0-.137.981v3.984a4.907,4.907,0,0,1-.525.059h-.981a4.823,4.823,0,0,1-.52-.059Z" transform="translate(-112.945 -2.852)" fill="#e30613"/>
  <path id="Path_10" data-name="Path 10" d="M236.755,16.977a3.925,3.925,0,0,1-1.6-.3,2.944,2.944,0,0,1-1.128-.834,3.625,3.625,0,0,1-.677-1.251,5.117,5.117,0,0,1-.226-1.555,5.285,5.285,0,0,1,.226-1.57,3.65,3.65,0,0,1,.7-1.266,3.066,3.066,0,0,1,1.128-.844,3.925,3.925,0,0,1,1.6-.3,3.974,3.974,0,0,1,1.609.3,3.12,3.12,0,0,1,1.143.844,3.493,3.493,0,0,1,.657,1.281,5.446,5.446,0,0,1,.221,1.57,5.274,5.274,0,0,1-.221,1.555,3.468,3.468,0,0,1-.677,1.251,2.993,2.993,0,0,1-1.143.834A3.974,3.974,0,0,1,236.755,16.977Zm0-1.585a1.261,1.261,0,0,0,1.177-.608,3.434,3.434,0,0,0,.358-1.751,3.483,3.483,0,0,0-.358-1.751,1.433,1.433,0,0,0-2.345,0,3.483,3.483,0,0,0-.358,1.751,3.434,3.434,0,0,0,.358,1.752,1.251,1.251,0,0,0,1.168.618Z" transform="translate(-121.529 -5.994)" fill="#e30613"/>
  <path id="Path_11" data-name="Path 11" d="M254.22,16.979a3.954,3.954,0,0,1-1.609-.3,2.978,2.978,0,0,1-1.128-.834,3.7,3.7,0,0,1-.672-1.251,5.112,5.112,0,0,1-.231-1.555,5.284,5.284,0,0,1,.231-1.57,3.724,3.724,0,0,1,.672-1.266,3.106,3.106,0,0,1,1.128-.844,4.416,4.416,0,0,1,3.218,0,3.16,3.16,0,0,1,1.143.844,3.572,3.572,0,0,1,.682,1.281,5.618,5.618,0,0,1,.216,1.57,5.44,5.44,0,0,1-.216,1.555,3.547,3.547,0,0,1-.677,1.251,3.032,3.032,0,0,1-1.143.834A3.989,3.989,0,0,1,254.22,16.979Zm0-1.575A1.261,1.261,0,0,0,255.4,14.8a3.434,3.434,0,0,0,.358-1.751,3.483,3.483,0,0,0-.358-1.751,1.433,1.433,0,0,0-2.345,0,3.483,3.483,0,0,0-.358,1.751,3.434,3.434,0,0,0,.358,1.752A1.251,1.251,0,0,0,254.22,15.4Z" transform="translate(-130.424 -5.994)" fill="#e30613"/>
  <path id="Path_12" data-name="Path 12" d="M268.792,2.91a6.084,6.084,0,0,1,2.051,0v7.7a4.2,4.2,0,0,0,.049.731,1.074,1.074,0,0,0,.162.432.544.544,0,0,0,.285.211,1.413,1.413,0,0,0,.442.059,1.54,1.54,0,0,0,.255,0A1.687,1.687,0,0,0,272.31,12a4.75,4.75,0,0,1,.162,1.173v.216a.867.867,0,0,1-.029.211,2.831,2.831,0,0,1-.564.1c-.221,0-.427.029-.608.029a2.561,2.561,0,0,1-1.81-.623,2.635,2.635,0,0,1-.682-2.031Z" transform="translate(-139.688 -2.823)" fill="#e30613"/>
</svg>
